<?xml version="1.0" standalone="no"?>
<!DOCTYPE svg PUBLIC "-//W3C//DTD SVG 20010904//EN"
 "http://www.w3.org/TR/2001/REC-SVG-20010904/DTD/svg10.dtd">
<svg version="1.0" xmlns="http://www.w3.org/2000/svg"
 width="1000.000000pt" height="1000.000000pt" viewBox="0 0 1000.000000 1000.000000"
 preserveAspectRatio="xMidYMid meet">

<g transform="translate(0.000000,1000.000000) scale(0.100000,-0.100000)"
fill="#000000" stroke="none">
<path d="M4610 9769 c-1145 -97 -2183 -580 -2995 -1393 -384 -385 -676 -792
-910 -1271 -258 -528 -393 -1000 -467 -1630 -20 -173 -17 -811 5 -997 104
-869 407 -1641 912 -2323 196 -265 492 -584 730 -787 576 -491 1262 -844 1965
-1012 458 -110 765 -142 1255 -133 313 6 445 19 755 72 503 88 1033 280 1490
540 408 232 711 463 1045 799 776 780 1246 1774 1367 2891 17 161 17 801 0
950 -23 200 -51 374 -87 538 -172 801 -544 1533 -1099 2166 -230 263 -609 594
-897 784 -671 443 -1300 676 -2119 788 -126 17 -219 21 -500 24 -190 2 -392
-1 -450 -6z m-689 -1839 c397 -41 648 -211 823 -557 80 -158 134 -349 173
-608 25 -173 25 -725 0 -905 -57 -403 -160 -673 -338 -894 -135 -167 -281
-252 -519 -301 -61 -13 -159 -16 -557 -15 -265 0 -489 3 -498 6 -23 9 -30 51
-11 78 l15 25 498 4 c540 4 543 4 692 64 145 57 240 139 343 291 191 283 280
664 279 1202 0 324 -31 563 -102 795 -99 321 -288 544 -540 636 -146 53 -217
60 -667 66 l-412 6 2 -1199 c3 -1124 4 -1201 21 -1231 36 -67 43 -68 432 -68
312 0 356 2 402 18 68 24 126 86 148 159 44 148 66 406 66 768 0 613 -54 884
-192 965 -28 16 -56 21 -156 24 l-123 3 0 -815 c0 -809 0 -814 -21 -841 -24
-31 -52 -33 -79 -6 -20 20 -20 33 -20 883 0 729 2 866 14 883 13 17 29 19 143
22 297 8 407 -62 483 -303 90 -291 101 -1133 19 -1539 -32 -160 -93 -251 -202
-302 -90 -41 -135 -45 -503 -42 l-349 3 -56 26 c-63 30 -98 70 -125 144 -18
48 -19 111 -22 1287 -2 1231 -2 1238 18 1258 19 19 32 20 419 20 219 0 445 -5
502 -10z m2370 0 c569 -57 878 -409 991 -1132 20 -126 22 -182 23 -478 0 -353
-5 -418 -51 -654 -74 -376 -249 -702 -459 -851 -123 -88 -298 -150 -465 -164
-41 -3 -273 -4 -515 -1 l-439 5 -15 26 c-13 24 -13 29 2 53 l17 26 443 0 c487
0 566 6 706 52 161 54 266 136 382 301 204 291 309 803 279 1370 -41 802 -297
1218 -806 1312 -70 13 -179 18 -501 22 l-413 6 0 -1179 c1 -1085 2 -1183 18
-1229 13 -37 26 -54 52 -70 33 -19 51 -20 385 -20 314 0 355 2 403 18 101 36
146 109 176 287 28 167 38 348 38 645 -1 616 -54 878 -192 960 -29 16 -56 21
-157 24 l-123 3 0 -812 c0 -815 -1 -840 -34 -862 -19 -13 -45 -9 -66 12 -20
20 -20 33 -20 883 0 729 2 866 14 883 13 17 29 19 136 22 266 8 379 -45 455
-212 66 -145 91 -307 105 -686 12 -295 3 -553 -26 -794 -36 -296 -94 -400
-263 -468 -55 -23 -63 -23 -441 -23 l-385 0 -50 26 c-27 15 -57 35 -66 45 -32
36 -59 103 -69 171 -7 45 -10 468 -8 1266 3 1173 3 1199 22 1213 16 12 90 14
417 14 218 0 443 -5 500 -10z m-2860 -3838 c130 -34 239 -124 299 -245 85
-173 55 -356 -80 -501 -99 -105 -213 -152 -355 -144 -278 15 -483 296 -410
563 33 125 132 241 249 296 108 50 189 59 297 31z m1235 7 c126 -23 250 -110
314 -222 16 -29 30 -58 30 -64 0 -10 -27 -13 -104 -13 l-104 0 -26 35 c-60 79
-192 110 -288 67 -163 -72 -209 -294 -91 -432 101 -117 275 -118 375 -1 l36
42 106 -3 107 -3 -27 -52 c-168 -339 -655 -336 -816 4 -86 183 -48 386 98 522
69 65 132 100 214 117 71 16 103 16 176 3z m2195 1 c89 -17 174 -63 243 -132
231 -232 158 -591 -149 -735 -54 -25 -70 -28 -171 -28 -107 0 -112 1 -186 37
-139 69 -236 196 -261 342 -31 184 77 388 253 474 98 48 174 60 271 42z
m-4639 -31 c343 -115 401 -592 96 -790 -83 -53 -163 -69 -347 -69 l-151 0 0
440 0 440 170 0 c146 0 179 -3 232 -21z m3798 -64 l0 -85 -125 0 -125 0 0
-355 0 -355 -100 0 -100 0 0 355 0 355 -125 0 -125 0 0 85 0 85 350 0 350 0 0
-85z m2045 61 c100 -47 156 -138 156 -252 0 -74 -13 -123 -48 -176 -23 -35
-88 -88 -109 -88 -5 0 -15 -4 -23 -9 -11 -7 13 -44 107 -165 67 -86 122 -158
122 -161 0 -3 -54 -5 -120 -5 l-120 0 -105 157 -105 158 0 -158 0 -157 -100 0
-100 0 0 440 0 440 198 0 c186 0 200 -1 247 -24z m-4523 -1557 c343 -115 401
-592 96 -790 -83 -53 -163 -69 -347 -69 l-151 0 0 440 0 440 170 0 c146 0 179
-3 232 -21z m1141 9 c2 -7 82 -203 176 -435 94 -232 171 -424 171 -427 0 -3
-46 -6 -103 -6 l-102 0 -31 88 -31 87 -169 3 -169 2 -31 -87 -31 -88 -107 -3
c-59 -1 -105 1 -103 5 3 4 82 199 177 433 95 234 174 428 177 433 8 13 170 8
176 -5z m1327 -73 l0 -84 -127 -3 -128 -3 -3 -352 -2 -353 -95 0 -95 0 0 355
0 355 -125 0 -125 0 0 85 0 85 350 0 350 0 0 -85z m850 0 l0 -85 -155 0 -155
0 0 -90 0 -90 150 0 150 0 0 -85 0 -85 -150 0 -150 0 0 -90 0 -90 155 0 155 0
0 -90 0 -90 -255 0 -255 0 0 440 0 440 255 0 255 0 0 -85z"/>
<path d="M3224 3891 c-131 -60 -196 -224 -135 -342 89 -172 284 -206 417 -72
127 127 84 336 -86 412 -57 26 -141 27 -196 2z"/>
<path d="M6702 3897 c-46 -14 -126 -89 -151 -140 -25 -52 -28 -141 -6 -193 59
-142 220 -209 348 -144 163 82 199 290 72 413 -73 71 -169 95 -263 64z"/>
<path d="M2010 3650 l0 -260 49 0 c100 0 185 50 226 134 56 114 40 232 -43
315 -52 52 -101 71 -181 71 l-51 0 0 -260z"/>
<path d="M7820 3809 l0 -131 74 4 c62 3 79 7 101 28 58 54 55 153 -6 204 -26
22 -40 26 -100 26 l-69 0 0 -131z"/>
<path d="M3330 2090 l0 -260 49 0 c100 0 185 50 226 134 56 114 40 232 -43
315 -52 52 -101 71 -181 71 l-51 0 0 -260z"/>
<path d="M4572 2244 c-12 -33 -37 -103 -56 -156 l-35 -98 110 0 c110 0 110 0
103 23 -4 12 -28 82 -54 156 l-47 133 -21 -58z"/>
</g>
</svg>
